<?xml version="1.0" encoding="utf-8"?><svg viewBox="0 0 800 800" xmlns="http://www.w3.org/2000/svg" xmlns:xlink="http://www.w3.org/1999/xlink"><style>:root>svg{display:none}:root>svg:target{display:block}</style><svg viewBox="0 0 24 24" fill="none" id="arrow" xmlns="http://www.w3.org/2000/svg"><path d="m12 4-6 6m6-6 6 6m-6-6v10.5m0 5.5v-2.5"/></svg><svg fill="#fff" viewBox="0 0 511 511" xml:space="preserve" id="skills--adaptive" xmlns="http://www.w3.org/2000/svg"><path d="M487.5 24h-464C10.542 24 0 34.542 0 47.5v304C0 364.458 10.542 375 23.5 375h158.057l-11.714 41H135.5a7.5 7.5 0 0 0 0 15h39.976l.028.002.024-.002H271.5a7.5 7.5 0 0 0 0-15h-86.057l11.714-41H271.5a7.5 7.5 0 0 0 0-15h-248c-4.687 0-8.5-3.813-8.5-8.5v-304c0-4.687 3.813-8.5 8.5-8.5h464c4.687 0 8.5 3.813 8.5 8.5v304a7.5 7.5 0 0 0 15 0v-304c0-12.958-10.542-23.5-23.5-23.5z"/><path d="M471.5 56h-432a7.5 7.5 0 0 0-7.5 7.5v272a7.5 7.5 0 0 0 7.5 7.5h232a7.5 7.5 0 0 0 0-15H47V135h417v32.5a7.5 7.5 0 0 0 15 0v-104a7.5 7.5 0 0 0-7.5-7.5zM47 120V71h417v49H47z"/><path d="M391.5 88h-240a7.5 7.5 0 0 0 0 15h240a7.5 7.5 0 0 0 0-15zM439.5 88h-16a7.5 7.5 0 0 0 0 15h16a7.5 7.5 0 0 0 0-15zM71.5 88c-1.97 0-3.91.8-5.3 2.2a7.528 7.528 0 0 0-2.2 5.3c0 1.97.8 3.91 2.2 5.3 1.39 1.4 3.33 2.2 5.3 2.2 1.97 0 3.91-.8 5.3-2.2 1.4-1.39 2.2-3.33 2.2-5.3 0-1.97-.8-3.91-2.2-5.3a7.528 7.528 0 0 0-5.3-2.2zM95.5 88a7.51 7.51 0 0 0-7.5 7.5c0 1.97.8 3.91 2.2 5.3 1.39 1.4 3.33 2.2 5.3 2.2 1.97 0 3.91-.8 5.3-2.2 1.4-1.39 2.2-3.33 2.2-5.3a7.51 7.51 0 0 0-7.5-7.5zM119.5 88c-1.97 0-3.91.8-5.3 2.2a7.528 7.528 0 0 0-2.2 5.3c0 1.97.8 3.91 2.2 5.3 1.39 1.4 3.33 2.2 5.3 2.2a7.51 7.51 0 0 0 7.5-7.5 7.51 7.51 0 0 0-7.5-7.5zM455.5 192h-136c-12.958 0-23.5 10.542-23.5 23.5v248c0 12.958 10.542 23.5 23.5 23.5h136c12.958 0 23.5-10.542 23.5-23.5v-248c0-12.958-10.542-23.5-23.5-23.5zM311 239h153v33H311v-33zm0 48h153v153H311V287zm8.5-80h136c4.687 0 8.5 3.813 8.5 8.5v8.5H311v-8.5c0-4.687 3.813-8.5 8.5-8.5zm136 265h-136c-4.687 0-8.5-3.813-8.5-8.5V455h153v8.5c0 4.687-3.813 8.5-8.5 8.5z"/><path d="M415.5 248h-88a7.5 7.5 0 0 0 0 15h88a7.5 7.5 0 0 0 0-15zM447.5 248h-8a7.5 7.5 0 0 0 0 15h8a7.5 7.5 0 0 0 0-15zM87.5 160c-8.547 0-15.5 6.953-15.5 15.5v104c0 8.547 6.953 15.5 15.5 15.5h120c8.547 0 15.5-6.953 15.5-15.5v-104c0-8.547-6.953-15.5-15.5-15.5h-120zm71.336 67.5L208 184.12v86.761L158.836 227.5zM147.5 217.498 99.336 175h96.328L147.5 217.498zM87 270.88v-86.76l49.164 43.38L87 270.88zm60.5-33.378L195.664 280H99.336l48.164-42.498zM255.5 175h184a7.5 7.5 0 0 0 0-15h-184a7.5 7.5 0 0 0 0 15zM271.5 200h-16a7.5 7.5 0 0 0 0 15h16a7.5 7.5 0 0 0 0-15zM271.5 240h-16a7.5 7.5 0 0 0 0 15h16a7.5 7.5 0 0 0 0-15zM271.5 280h-16a7.5 7.5 0 0 0 0 15h16a7.5 7.5 0 0 0 0-15zM431.5 304h-88c-8.547 0-15.5 6.953-15.5 15.5v56c0 8.547 6.953 15.5 15.5 15.5h88c8.547 0 15.5-6.953 15.5-15.5v-56c0-8.547-6.953-15.5-15.5-15.5zm-30.03 43.5L432 328.072v38.856L401.47 347.5zm-13.97-8.89L356.684 319h61.632L387.5 338.61zM343 366.928v-38.856l30.53 19.428L343 366.928zm44.5-10.538L418.316 376h-61.632l30.816-19.61zM439.5 408h-104a7.5 7.5 0 0 0 0 15h104a7.5 7.5 0 0 0 0-15z"/></svg><svg fill="#E6E6E6" viewBox="0 0 32 32" id="skills--css" xmlns="http://www.w3.org/2000/svg"><path d="m24.235 6.519-16.47-.004.266 3.277 12.653.002-.319 3.394h-8.298l.3 3.215h7.725l-.457 4.403-3.636 1.005-3.694-1.012-.235-2.637H8.808l.362 4.817 6.829 2.128 6.714-1.912L24.234 6.52zM2.879 1.004h26.242L26.734 27.95l-10.763 3.045-10.703-3.047z"/></svg><svg viewBox="0 0 24 24" fill="none" id="skills--git" xmlns="http://www.w3.org/2000/svg"><path fill-rule="evenodd" clip-rule="evenodd" d="M13.414 3.828a2 2 0 0 0-2.828 0l-.672.672 1.568 1.568a2.002 2.002 0 0 1 2.45 2.45l2.05 2.05a2 2 0 1 1-1.414 1.414L13 10.414v4.854A2 2 0 0 1 12 19a2 2 0 0 1-1-3.732V9.732a2 2 0 0 1-.932-2.25L8.5 5.914l-4.672 4.672a2 2 0 0 0 0 2.828l6.758 6.758a2 2 0 0 0 2.828 0l6.758-6.758a2 2 0 0 0 0-2.828l-6.758-6.758ZM9.172 2.414a4 4 0 0 1 5.656 0l6.758 6.758a4 4 0 0 1 0 5.656l-6.758 6.758a4 4 0 0 1-5.656 0l-6.758-6.758a4 4 0 0 1 0-5.656l6.758-6.758Z" fill="#fff"/></svg><svg fill="#fff" viewBox="0 0 32 32" id="skills--gulp" xmlns="http://www.w3.org/2000/svg"><path d="M22.154 1a.14.14 0 0 0-.093.033l-3.715 4.412-.758 2.606a48.434 48.434 0 0 0-1.592-.024c-3.86 0-6.996.41-6.996.916 0 1.21 13.99 1.21 13.99 0 0-.375-1.675-.691-4.09-.841l.6-2.145 3.475-4.18.005-.006c.078-.08-.074-.324-.322-.537-.186-.16-.381-.239-.504-.234zm-4.851 8.076-.014.041c-.006.005-.006.012-.006.018 0 .075.303.136.672.136.37 0 .674-.061.674-.136l.012-.047c.097.035.15.075.15.121 0 .121-.375.22-.842.215-.454 0-.83-.092-.83-.213 0-.052.075-.1.184-.135zm5.61.344c-1.852.987-11.963.994-13.821.014l.822 7.232c.357-1.153 1.26-2.71 2.422-3.182.38-.156.768-.155 1.13.053.316.173.582.536.612.68.073.375-.12.523-.271.523-.182 0-.321-.264-.412-.42-.248-.42-.624-.439-1.024-.162-.418.288-.781.773-1.035 1.194a6.631 6.631 0 0 0-.727 1.625c-.09.323-.174.84-.035 1.146.061.127.151.207.297.207.303 0 .743-.38.955-.582.272-.259.623-.663.756-.922l.316-.892c.157-.392.598-.323.598 0 0 .588-.222.784-.603 2-.351 1.124-.461 1.488-.461 1.488-.042.16-.206.432-.381.432-.073 0-.126-.025-.156-.07-.061-.082-.055-.304-.05-.362.013-.184.381-1.28.442-1.453a7.36 7.36 0 0 1-.387.38c-.327.295-.852.68-1.3.68a.762.762 0 0 1-.465-.138l.459 4.588c.12.288 2.373.986 5.338.986 2.97 0 5.22-.703 5.336-.986l.66-5.452c-.345.3-.744.67-1.186.854-.327.133-1.053.218-1.053-.33 0-.3.552-.852.872-1.238.085-.098.283-.34.283-.467 0-.167-.362-.129-.707.142a3.373 3.373 0 0 0-.528.56c-.26.347-.398.645-.513.893-.375.818-.248.496-.551 1.268-.303.767-.254.68-.315.807a.565.565 0 0 1-.242.26.38.38 0 0 1-.369-.018c-.054-.035-.08-.11-.08-.213 0-.052.008-.104.02-.156.09-.352.472-1.043.908-1.977.097-.213.06-.15.047-.133-.375.346-.66.514-.871.606-.351.15-.787.15-.877-.237-.006-.023-.006-.047-.012-.07-.714.53-1.47.674-1.21-.467-.277.473-.763.86-1.357.86-.247 0-.429-.08-.519-.293-.139-.317.078-.86.277-1.373.103-.26.244-.57.432-.934.097-.196.253-.312.459-.26a.54.54 0 0 1 .098.041c.157.104.096.258.017.414-.23.432-.43.75-.562 1.2-.054.19-.122.52.09.52a.728.728 0 0 0 .417-.14c.278-.196.502-.489.672-.777a3.85 3.85 0 0 0 .34-.709c.03-.098.068-.19.11-.277.067-.144.156-.293.314-.293.079 0 .144.029.193.086.103.127.08.257.026.396-.121.323-.284.612-.418.963-.08.202-.164.461-.164.674 0 .196.224.15.412.068.145-.063.29-.16.412-.257.073-.282.054-.22 1.598-3.932.079-.19.224-.272.369-.272a.34.34 0 0 1 .193.065c.103.075.105.234.063.355-.042.11-.038.076-.274.606-.315.697-.52 1.2-.799 1.84-.115.265-.465 1.089-.525 1.285-.036.127-.08.334.06.334.328 0 1.169-.756 1.399-.98.012-.018.03-.024.055-.036.036-.11.071-.212.101-.316.085-.22.164-.475.322-.653.048-.058.103-.091.163-.091.169 0 .253.068.253.23 0 .063-.04.295-.066.358.085-.086.175-.172.272-.258.908-.801 1.554-.393 1.554.011 0 .426-.538 1.02-.834 1.348-.097.11-.296.311-.302.37 0 .074.053.105.132.105.121 0 .388-.203.485-.272.303-.225.713-.57 1.004-.812l.896-7.885zM10.93 24.03l.902 1.465.352 4.576c0 .513 1.712.928 3.818.928s3.818-.415 3.818-.928l.28-4.623.851-1.418c-2.397.963-7.527.997-10.021 0z"/></svg><svg viewBox="-1 0 20 20" id="skills--html" xmlns="http://www.w3.org/2000/svg"><path d="M14.435 6H5.812l.206 2h8.212c-.12 1.752-.484 5.464-.618 7.153l-4.613 1.298v.004l-.01.005-4.615-1.624L4.058 11H6.32l.16 2.063L8.993 14H9l2.51-.9.258-3.1h-7.81c-.038-.401-.524-5.608-.608-6h11.288c-.063.66-.127 1.338-.202 2ZM0 0l1.638 18.148L8.99 20l7.37-1.889L18 0H0Z" fill="#E6E6E6" fill-rule="evenodd"/></svg><svg fill="#fff" viewBox="0 0 14 14" aria-hidden="true" id="skills--js" xmlns="http://www.w3.org/2000/svg"><path d="M11.714 1H2.286C1.576 1 1 1.576 1 2.286v9.428C1 12.424 1.576 13 2.286 13h9.428c.71 0 1.286-.576 1.286-1.286V2.286C13 1.576 12.424 1 11.714 1ZM7.53 10.359c0 1.168-.685 1.7-1.684 1.7-.903 0-1.425-.465-1.693-1.03l.918-.555c.177.313.338.579.726.579.37 0 .606-.145.606-.71V6.51H7.53v3.849zm2.668 1.7c-1.047 0-1.725-.497-2.054-1.151l.918-.53c.242.393.558.685 1.112.685.466 0 .766-.233.766-.557 0-.385-.305-.522-.822-.75l-.281-.12c-.815-.346-1.353-.782-1.353-1.701 0-.847.645-1.49 1.65-1.49.718 0 1.232.25 1.602.903l-.879.563c-.193-.346-.402-.482-.726-.482-.33 0-.538.208-.538.482 0 .337.209.474.694.685l.28.121c.96.41 1.498.83 1.498 1.773 0 1.013-.798 1.57-1.867 1.57z"/></svg><svg viewBox="0 0 50 50" style="enable-background:new 0 0 50 50" xml:space="preserve" fill="#fff" id="skills--scss" xmlns="http://www.w3.org/2000/svg"><path d="M43.03 27.802a10.286 10.286 0 0 0-4.53 1.054c-.464-.926-.934-1.741-1.013-2.347-.092-.707-.199-1.129-.088-1.972.111-.843.599-2.036.591-2.125-.007-.089-.109-.518-1.117-.526-1.008-.007-1.87.194-1.972.46a9.797 9.797 0 0 0-.416 1.49c-.177.914-2.012 4.174-3.055 5.879-.341-.666-.631-1.252-.691-1.716-.092-.707-.199-1.129-.088-1.972.111-.843.599-2.036.591-2.125-.007-.089-.109-.518-1.117-.526-1.008-.007-1.87.194-1.972.46-.102.266-.21.888-.416 1.49-.207.602-2.647 6.039-3.286 7.448a43.557 43.557 0 0 1-.809 1.689l-.001-.002-.034.071c-.171.335-.273.521-.273.521l.003.007c-.136.246-.281.475-.353.475-.05 0-.151-.656.022-1.555.363-1.886 1.235-4.828 1.227-4.929-.004-.052.162-.564-.57-.833-.711-.26-.965.174-1.03.175-.063.001-.11.153-.11.153s.793-3.308-1.512-3.308c-1.44 0-3.436 1.576-4.42 3.004a1269.137 1269.137 0 0 0-4.974 2.727l-.108-.118c-2.794-2.981-7.958-5.089-7.739-9.096.08-1.457.586-5.293 9.924-9.946 7.649-3.812 13.773-2.763 14.831-.438 1.512 3.321-3.273 9.494-11.216 10.384-3.027.339-4.62-.834-5.017-1.271-.417-.46-.479-.481-.635-.394-.254.141-.093.547 0 .789.237.617 1.21 1.712 2.87 2.256 1.46.479 5.013.742 9.311-.92 4.813-1.862 8.571-7.041 7.468-11.37-1.123-4.403-8.423-5.85-15.332-3.396-4.112 1.461-8.563 3.754-11.764 6.747-3.806 3.56-4.412 6.658-4.162 7.952.889 4.6 7.228 7.595 9.767 9.815l-.35.193c-1.273.63-6.105 3.159-7.314 5.831-1.371 3.031.218 5.206 1.271 5.499 3.26.907 6.606-.725 8.404-3.407 1.798-2.681 1.578-6.172.753-7.766l-.032-.059.996-.587c.648-.38 1.284-.735 1.836-1.036-.309.846-.535 1.86-.653 3.325-.138 1.721.567 3.945 1.49 4.82.406.385.895.394 1.205.394 1.074 0 1.564-.893 2.103-1.95.662-1.296 1.249-2.804 1.249-2.804s-.737 4.075 1.271 4.075c.731 0 1.467-.949 1.795-1.432l.001.008.056-.095c.076-.116.119-.19.119-.19l.004-.021c.294-.51.946-1.674 1.924-3.594 1.263-2.48 2.475-5.586 2.475-5.586s.113.76.482 2.015c.217.739.679 1.556 1.043 2.339-.293.407-.473.64-.473.64l.005.012a23.86 23.86 0 0 1-.772.974c-.997 1.188-2.185 2.544-2.344 2.936-.187.461-.143.801.219 1.073.264.199.735.23 1.227.197.896-.06 1.527-.283 1.838-.418a6.156 6.156 0 0 0 1.58-.831c.978-.719 1.568-1.748 1.512-3.111-.031-.751-.271-1.495-.574-2.198.089-.128.178-.256.267-.387 1.542-2.255 2.738-4.732 2.738-4.732s.113.76.482 2.015c.187.636.556 1.329.887 2.009-1.45 1.178-2.349 2.547-2.662 3.445-.577 1.661-.125 2.414.723 2.585.384.078.927-.098 1.335-.271a6.172 6.172 0 0 0 1.688-.868c.978-.719 1.919-1.726 1.862-3.089-.026-.62-.194-1.236-.422-1.828 1.229-.512 2.821-.797 4.848-.56 4.349.508 5.202 3.223 5.039 4.359-.163 1.137-1.075 1.761-1.38 1.95-.305.189-.398.254-.372.394.037.204.178.196.438.152.358-.06 2.283-.924 2.366-3.022.104-2.658-2.448-5.583-6.968-5.559zm-33.518 11.3c-1.44 1.571-3.453 2.165-4.316 1.665-.932-.54-.563-2.854 1.205-4.521 1.077-1.016 2.468-1.952 3.391-2.529l.893-.537.097-.055-.001-.002.223-.134c.643 2.374.02 4.464-1.492 6.113zm10.493-7.134c-.502 1.223-1.552 4.352-2.191 4.184-.549-.144-.883-2.523-.11-4.863.389-1.178 1.22-2.586 1.709-3.133.786-.879 1.652-1.167 1.862-.81.269.454-.955 3.855-1.27 4.622zm8.67 4.137c-.213.111-.408.181-.498.127-.067-.04.088-.186.088-.186s1.084-1.167 1.512-1.698c.248-.309.537-.676.85-1.086.003.041.004.082.004.122-.004 1.398-1.354 2.341-1.956 2.721zm6.679-1.523c-.159-.113-.132-.478.389-1.614.205-.446.672-1.198 1.485-1.916.094.295.152.578.15.842-.011 1.759-1.266 2.416-2.024 2.688z"/></svg></svg>